 <svg version="1.0" xmlns="http://www.w3.org/2000/svg" width="700.000000pt" height="700.000000pt" viewBox="0 0 700.000000 700.000000" preserveAspectRatio="xMidYMid meet">
<metadata>
Created by potrace 1.12, written by Peter Selinger 2001-2015
</metadata>
<g transform="translate(0.000000,700.000000) scale(0.100000,-0.100000)" fill="#000000" stroke="none">
<path d="M0 3500 l0 -3500 1235 0 1234 0 -17 37 c-10 21 -28 54 -40 73 -12 19
-22 38 -22 41 0 17 -149 247 -191 296 -33 38 -139 199 -204 308 -73 124 -168
319 -229 469 -31 75 -80 181 -110 234 -76 137 -141 278 -191 412 -7 19 -19 53
-28 75 -8 22 -21 65 -30 95 -9 30 -25 87 -36 125 -17 60 -36 137 -57 233 -4
19 -11 22 -55 22 -68 0 -123 34 -184 111 -52 66 -74 115 -75 166 0 18 -13 69
-30 114 -16 44 -43 138 -60 207 -37 157 -63 244 -104 347 -34 88 -34 89 -25
435 4 158 5 167 31 212 35 59 74 90 102 82 12 -3 45 -30 73 -61 59 -61 78 -63
57 -6 -19 54 -17 87 6 108 11 10 20 23 20 30 0 7 7 26 16 43 10 20 13 40 8 54
-7 22 -8 21 -14 -7 -3 -17 -11 -30 -20 -30 -20 0 -25 39 -7 56 21 22 29 90 12
103 -12 9 -12 23 -3 83 10 63 9 77 -6 112 -16 34 -18 61 -14 193 3 112 9 162
21 188 8 19 17 44 19 55 2 13 13 21 28 23 45 7 69 43 84 127 4 22 13 49 20 60
7 11 21 46 31 77 10 32 33 81 51 110 19 29 34 59 34 66 0 8 8 26 19 40 10 15
32 53 49 85 17 31 61 90 99 131 54 58 85 82 150 114 45 22 99 54 120 70 47 37
170 102 193 102 9 0 20 4 26 10 15 15 147 17 152 2 5 -17 28 -15 59 5 19 13
47 17 111 16 82 0 86 -1 109 -29 19 -24 26 -27 41 -18 12 8 24 9 36 2 10 -5
33 -7 52 -4 29 6 34 4 34 -12 0 -26 32 -38 160 -61 146 -27 252 -20 340 23 50
23 80 31 130 32 144 4 305 25 346 44 47 23 93 25 149 5 54 -20 207 -20 245 0
16 8 39 15 52 14 13 0 43 6 68 14 40 13 50 12 95 -3 27 -10 75 -34 105 -54 30
-20 64 -36 76 -36 24 0 167 -77 173 -93 2 -5 36 -46 75 -91 74 -84 126 -155
126 -172 0 -5 22 -41 48 -79 78 -113 139 -279 167 -450 11 -69 15 -175 15
-392 0 -243 4 -323 20 -433 11 -74 20 -141 20 -147 0 -7 5 -13 10 -13 6 0 10
27 10 60 0 46 7 74 30 122 16 34 30 68 30 76 0 8 10 25 23 37 12 13 30 34 40
49 10 14 26 26 37 26 49 0 130 -116 130 -187 0 -19 6 -46 14 -61 7 -15 18 -74
25 -132 13 -126 4 -226 -32 -362 -15 -53 -31 -141 -37 -195 -5 -54 -15 -140
-21 -190 -9 -72 -9 -110 1 -172 14 -85 5 -159 -26 -219 -8 -15 -14 -32 -14
-38 0 -10 -52 -66 -103 -110 -23 -20 -24 -25 -30 -210 -7 -244 -41 -483 -87
-601 -98 -255 -136 -328 -272 -514 -26 -37 -48 -72 -48 -79 0 -6 -33 -45 -74
-85 -41 -41 -82 -85 -91 -99 -17 -26 -52 -159 -80 -306 -52 -276 -92 -453
-132 -590 -61 -209 -65 -226 -57 -277 l6 -43 211 0 210 0 -7 53 c-3 30 -13 74
-22 98 -18 46 -37 309 -27 362 8 39 22 33 29 -13 8 -48 24 -63 24 -22 0 16 5
43 11 61 9 27 16 31 45 31 l34 0 0 56 c0 36 -5 61 -15 70 -25 25 -18 62 19
100 43 44 55 108 32 173 -23 64 -19 82 9 36 17 -27 23 -48 20 -66 -4 -19 4
-45 25 -85 18 -33 36 -63 41 -68 5 -6 9 -22 9 -38 0 -15 6 -42 14 -60 19 -47
46 -125 62 -183 8 -27 21 -64 29 -82 8 -17 15 -34 15 -39 0 -4 11 -21 24 -38
13 -17 28 -55 35 -85 6 -29 18 -62 26 -74 8 -12 15 -31 15 -43 0 -12 7 -27 14
-34 8 -6 22 -34 31 -61 l17 -49 914 0 914 0 0 3500 0 3500 -3500 0 -3500 0 0
-3500z"></path>
<path d="M1106 4382 c-13 -12 -5 -22 19 -22 14 0 25 4 25 9 0 10 -36 21 -44
13z"></path>
<path d="M1170 4151 c0 -11 5 -23 10 -26 6 -3 10 3 10 14 0 11 -4 23 -10 26
-5 3 -10 -3 -10 -14z"></path>
<path d="M4430 4154 c-19 -7 -45 -13 -57 -13 -12 -1 -42 -11 -65 -23 -36 -19
-56 -23 -119 -20 -50 2 -91 -3 -115 -12 -22 -8 -64 -17 -94 -21 -74 -8 -78
-12 -71 -65 l6 -45 50 -7 c31 -5 68 -3 97 4 36 9 56 9 85 0 30 -9 43 -9 66 3
16 8 34 12 39 9 12 -8 98 16 98 27 0 4 -13 10 -28 14 -15 3 -33 15 -40 26 -18
29 1 49 48 49 20 0 57 6 83 14 32 10 58 11 89 5 66 -14 157 -18 164 -8 10 16
49 9 62 -11 14 -23 42 -27 42 -5 0 22 -68 47 -110 40 -38 -6 -98 13 -120 39
-15 19 -61 19 -110 0z"></path>
<path d="M2540 3943 c-8 -13 -13 -14 -16 -5 -9 21 -50 13 -128 -23 -83 -39
-133 -44 -173 -17 -31 20 -147 22 -166 3 -15 -15 11 -34 33 -25 8 4 34 9 57
11 35 5 47 1 73 -21 19 -16 44 -26 62 -26 17 0 39 -7 48 -15 20 -18 75 -20
220 -6 132 13 142 15 134 34 -8 22 22 28 56 11 22 -11 38 -13 58 -6 54 18 32
51 -34 52 -12 0 -42 11 -65 25 -55 31 -142 35 -159 8z"></path>
<path d="M1965 3860 c-3 -5 3 -10 14 -10 12 0 21 5 21 10 0 6 -6 10 -14 10 -8
0 -18 -4 -21 -10z"></path>
<path d="M4116 3805 c-52 -40 -57 -61 -23 -101 l24 -27 21 45 c12 24 22 54 22
66 0 55 60 -9 67 -71 4 -37 2 -48 -18 -66 -12 -11 -17 -21 -10 -21 35 0 71 66
71 131 0 32 5 42 23 50 33 15 114 -13 149 -52 25 -27 68 -40 68 -21 0 5 -33
29 -72 55 l-73 47 -101 0 c-100 0 -101 0 -148 -35z"></path>
<path d="M2370 3633 c0 -10 5 -25 10 -33 8 -13 15 -10 42 18 l33 32 -43 0
c-33 0 -42 -4 -42 -17z"></path>
<path d="M2496 3617 c-17 -12 -17 -15 0 -50 22 -46 48 -48 63 -7 9 26 7 34 -9
50 -23 23 -30 24 -54 7z"></path>
<path d="M4125 3620 c-3 -5 3 -10 14 -10 12 0 21 5 21 10 0 6 -6 10 -14 10 -8
0 -18 -4 -21 -10z"></path>
<path d="M2200 3535 c-8 -9 -8 -15 -2 -15 12 0 26 19 19 26 -2 2 -10 -2 -17
-11z"></path>
<path d="M2518 3453 c7 -3 16 -2 19 1 4 3 -2 6 -13 5 -11 0 -14 -3 -6 -6z"></path>
<path d="M4015 1979 c-4 -6 -4 -13 -1 -16 8 -8 36 5 36 17 0 13 -27 13 -35 -1z"></path>
<path d="M2765 1950 c-9 -15 4 -30 26 -30 23 0 26 25 3 34 -21 8 -22 8 -29 -4z"></path>
<path d="M2970 1850 c0 -5 5 -10 10 -10 6 0 10 5 10 10 0 6 -4 10 -10 10 -5 0
-10 -4 -10 -10z"></path>
<path d="M4795 742 c-7 -23 4 -54 16 -46 12 7 12 51 0 59 -5 3 -12 -3 -16 -13z"></path>
</g>
</svg>